<svg data-v-423bf9ae="" xmlns="http://www.w3.org/2000/svg" viewBox="0 0 172.90219032210123 163" class="iconAbove"><!----><!----><!----><g data-v-423bf9ae="" id="71ad2693-5701-4621-b1dc-acd1df846d33" fill="white" transform="matrix(4.731861084854148,0,0,4.731861084854148,-5.347005563550084,91.73816912285429)"><path d="M4.33 14.76C3.25 14.76 2.73 14.53 2.16 14.03C1.67 13.61 1.40 13.03 1.40 12.40C1.40 11.34 2.20 10.25 3.54 10.25C4.07 10.25 4.51 10.39 4.77 10.65C5.01 10.86 5.14 11.19 5.14 11.52C5.14 12.15 4.70 12.82 4.06 12.82C3.70 12.82 3.42 12.73 3.23 12.53C2.91 12.21 2.93 11.72 2.93 11.72L2.66 11.70C2.65 11.73 2.63 12.31 3.04 12.71C3.28 12.96 3.63 13.10 4.06 13.10C4.86 13.10 5.40 12.29 5.40 11.52C5.40 11.10 5.25 10.72 4.96 10.46C4.63 10.15 4.14 9.98 3.54 9.98C2.03 9.98 1.13 11.21 1.13 12.40C1.13 13.12 1.43 13.76 1.97 14.22C2.60 14.77 3.54 15.06 4.68 15.06C7.45 15.06 9.21 13.58 9.21 11.48C9.21 9.53 7.06 8.74 5.85 7.62C6.64 7.42 7.32 7.00 7.55 6.83C7.78 6.97 8.09 7.04 8.44 7.04C9.84 7.04 10.61 5.96 10.61 4.93C10.61 4.35 10.39 3.81 9.97 3.42C9.49 2.98 8.79 2.73 7.95 2.73C5.47 2.73 3.37 4.31 3.37 6.83C3.37 7.00 3.37 7.15 3.40 7.31C2.56 7.03 2.18 6.44 2.02 5.94C1.65 4.80 2.09 3.25 2.97 2.60L2.81 2.38C1.83 3.11 1.36 4.77 1.76 6.02C1.93 6.52 2.35 7.28 3.44 7.60C4.02 10.08 7.43 9.97 7.43 12.56C7.43 13.86 6.33 14.76 4.33 14.76ZM7.35 6.68C7.13 6.83 6.43 7.25 5.61 7.43C4.03 6.36 4.89 3.00 7.95 3.00C8.72 3.00 9.35 3.22 9.79 3.61C10.15 3.96 10.35 4.42 10.35 4.93C10.35 5.84 9.67 6.80 8.44 6.80C8.19 6.80 7.98 6.75 7.80 6.66C8.43 6.10 8.82 5.38 8.82 4.72C8.82 4.05 8.48 3.70 7.88 3.70C7.13 3.70 6.71 4.33 6.71 5.12C6.71 5.71 6.93 6.30 7.35 6.68ZM7.87 3.95C8.32 3.95 8.54 4.20 8.54 4.72C8.54 5.38 8.11 6.12 7.56 6.51C7.17 6.19 6.99 5.64 6.99 5.12C6.99 4.44 7.29 3.95 7.87 3.95ZM20.19 8.36C20.19 7.25 19.53 6.59 18.44 6.59C17.42 6.59 16.95 7.32 16.65 8.22C16.59 7.20 15.95 6.59 14.91 6.59C14.03 6.59 13.57 7.14 13.26 7.87L13.26 7.83C13.26 7.04 12.78 6.59 11.91 6.59C11.49 6.59 11.13 6.78 10.86 7.10L11.07 7.27C11.26 7.04 11.49 6.90 11.77 6.87L10.85 12.04L12.53 12.04L13.03 9.24C13.40 7.87 13.87 7.01 14.49 7.01C14.87 7.01 15.06 7.17 15.06 7.62C15.06 8.44 14.56 10.07 14.56 11.02C14.56 11.76 14.99 12.17 15.83 12.17C16.74 12.17 17.01 11.66 17.01 11.66L16.80 11.49C16.80 11.49 16.46 11.89 16.10 11.89C16.13 11.09 16.37 10.19 16.52 9.42C16.90 7.94 17.37 7.01 18.02 7.01C18.40 7.01 18.59 7.17 18.59 7.62C18.59 8.44 18.09 10.07 18.09 11.02C18.09 11.76 18.52 12.17 19.36 12.17C20.27 12.17 20.54 11.66 20.54 11.66L20.33 11.49C20.33 11.49 19.99 11.89 19.63 11.89C19.68 10.68 20.19 9.24 20.19 8.36ZM21.49 7.27C21.67 7.04 21.91 6.90 22.19 6.87L21.27 12.04L22.95 12.04L23.45 9.25L23.45 9.24C23.49 9.10 24.15 6.92 25.31 6.92C25.69 6.92 26.03 7.03 26.03 7.77C26.03 8.72 24.82 9.51 24.82 10.51L25.16 10.51C25.16 9.63 26.39 8.82 26.39 7.71C26.39 6.93 26.04 6.59 25.31 6.59C24.61 6.59 24.11 7.00 23.67 7.91L23.67 7.83C23.67 7.04 23.20 6.59 22.33 6.59C21.91 6.59 21.55 6.78 21.28 7.10ZM29.33 6.59C29.33 6.59 28.69 6.72 27.61 6.72L27.01 6.72L26.98 6.97L27.57 6.97L27.10 9.48C27.01 10.07 26.88 10.57 26.88 11.00C26.88 11.68 27.36 12.17 28.22 12.17C28.64 12.17 29.01 11.98 29.27 11.66L29.06 11.49C28.88 11.72 28.64 11.86 28.36 11.89ZM27.75 4.54C27.75 5.10 28.20 5.54 28.76 5.54C29.32 5.54 29.78 5.10 29.78 4.54C29.78 3.98 29.32 3.51 28.76 3.51C28.20 3.51 27.75 3.98 27.75 4.54ZM33.04 4.52C33.04 4.52 32.40 4.65 31.32 4.65C31.19 5.38 31.05 6.06 30.94 6.72L30.23 6.72L30.20 6.97L30.88 6.97C30.56 8.72 30.31 10.14 30.31 10.78C30.31 11.66 31.01 12.17 31.88 12.17C33.15 12.17 33.74 11.14 34.02 9.95L33.77 9.87C33.59 10.64 33.05 11.77 32.30 11.77C32.05 11.77 31.86 11.62 31.86 11.33C31.86 10.81 32.23 8.71 32.56 6.97L34.31 6.97L34.34 6.72L32.61 6.72C32.84 5.50 33.04 4.52 33.04 4.52ZM37.23 6.59C37.23 6.59 36.58 6.72 35.50 6.72L34.90 6.72L34.87 6.97L35.46 6.97L35 9.48C34.90 10.07 34.78 10.57 34.78 11.00C34.78 11.68 35.25 12.17 36.12 12.17C36.54 12.17 36.90 11.98 37.17 11.66L36.96 11.49C36.78 11.72 36.54 11.86 36.26 11.89ZM35.64 4.54C35.64 5.10 36.09 5.54 36.65 5.54C37.21 5.54 37.67 5.10 37.67 4.54C37.67 3.98 37.21 3.51 36.65 3.51C36.09 3.51 35.64 3.98 35.64 4.54Z"></path></g><!----><g data-v-423bf9ae="" id="c326d614-fe56-4837-9522-1e2d7d0ece7b" transform="matrix(1.1285939101461113,0,0,1.1285939101461113,30.54240426768967,-11.331718158695345)" stroke="none" fill="white"><path d="M29.357 86.474c-.498-.045-1.009-.012-1.519-.039-.304-.016-.608-.002-.906-.029-5.517-.504-9.858-2.753-12.752-6.232-2.889-3.484-4.37-8.222-3.927-13.859l.026-.306c.375-4.13 1.616-7.751 3.572-10.923 1.957-3.17 4.638-5.89 7.918-8.162 10.157-7.033 20.811-13.42 31.42-19.904 5.839-3.572 12.15-6.576 18.109-10.334 1.331-.843 2.364-1.964 3.297-3.092.931-1.131 1.766-2.28 2.63-3.238 0 0-12.748 6.115-17.395 8.319-14.044 6.665-28.047 13.668-40.224 23.743-4.342 3.596-8.313 8.129-11.078 13.071-1.83 3.272-2.916 6.655-3.223 10.059-.496 5.444 1.021 10.904 4.449 15.98 1.832 2.72 4.004 4.739 6.423 6.121 2.418 1.384 5.068 2.128 7.832 2.377 2.573.232 5.261-.103 7.994-.588l10.1-1.939-10.203-.925c-.825-.074-1.681-.022-2.543-.1z"></path><path d="M90.816 29.546c-2.619-4.073-5.274-8.119-7.718-11.876l-1.058-1.627-.199 1.931c-.204 1.953-1.054 3.495-2.346 4.82-1.291 1.32-3.033 2.396-4.941 3.305-4.369 2.083-8.912 3.855-13.438 5.695-11.167 4.544-22.631 8.663-32.52 16.132-2.498 1.888-4.741 3.957-6.454 6.412-1.713 2.454-2.884 5.3-3.227 8.677-.05.487-.074.975-.074 1.463.002 3.133.983 6.209 2.513 8.655 1.533 2.439 3.616 4.282 5.953 4.822l1.791.407-1.086-1.481c-1.525-2.068-3.87-4.418-5.125-7.15a11.634 11.634 0 0 1-1.09-4.913c-.004-3.636 1.72-7.383 4.857-10.711l.124 10.323c.044 3.781.984 7.217 2.681 10.171 1.696 2.956 4.14 5.424 7.142 7.323 2.89 1.829 5.867 3.7 9.002 5.132 3.133 1.43 6.442 2.426 9.959 2.427 22.982-5.047 27.074-36.211 27.071-39.555 0-3.464-2.021-18.436-2.021-18.436S78.585 46 78.524 47H59.923l4.197 2.424c3.188 1.927 6.099 2.8 8.596 2.806 1.344 0 2.581-.31 3.622-.908a5.394 5.394 0 0 0 2-2.034c-.246 3.322-.525 6.583-1.181 9.717-.842 4.038-7.841 23.822-21.89 25.598-6.173-1.267-21.834-5.093-25.787-20.531l-2.582-10.221c.731-.753 4.309-3.467 5.299-3.469.538 0 5.141 1.396 6.766 1.395 2.696.003 5.375-.956 7.902-3.006l-.463-1.218-12.281.574-.105-.428c7.761-3.59 15.508-7.204 23.281-10.757 7.547-3.451 15.113-6.842 22.514-10.184-.003.091 2.513-3.59 3.011-4.544 4.919 7.734 9.485 15.293 9.477 24.107 0 2.06-.247 4.193-.798 6.425C88.67 64.188 83.6 73.92 74.039 81.324c0 0 5.14-1.412 7.063-3.151 21.441-21.166 12.938-43.617 9.714-48.627z"></path></g><!----></svg>